PathFileType	4	(X/Y/Z)	 s06c0402.trc
DataRate	CameraRate	NumFrames	NumMarkers	Units	OrigDataRate	OrigDataStartFrame	OrigNumFrames
200	200	4	48	mm	200	251	2000
Frame#	Time	racr			lacr			c7			jug			rlel			rdr			llel			ldr			s2			lic			ric			lasi			rasi			rpsi			lpsi			rgt			lgt			rth1			rth2			rth3			rth4			rlfc			rmfc			rsh1			rsh2			rsh3			rsh4			rlmal			rcal			rtoe			rmt5			lth1			lth2			lth4			lth3			llfc			lmfc			llmal			lcal			lmt5			lsh1			lsh2			lsh3			lsh4			ltoe			SBIKE			LBIKE			RBIKE			
		X1	Y1	Z1	X2	Y2	Z2	X3	Y3	Z3	X4	Y4	Z4	X5	Y5	Z5	X6	Y6	Z6	X7	Y7	Z7	X8	Y8	Z8	X9	Y9	Z9	X10	Y10	Z10	X11	Y11	Z11	X12	Y12	Z12	X13	Y13	Z13	X14	Y14	Z14	X15	Y15	Z15	X16	Y16	Z16	X17	Y17	Z17	X18	Y18	Z18	X19	Y19	Z19	X20	Y20	Z20	X21	Y21	Z21	X22	Y22	Z22	X23	Y23	Z23	X24	Y24	Z24	X25	Y25	Z25	X26	Y26	Z26	X27	Y27	Z27	X28	Y28	Z28	X29	Y29	Z29	X30	Y30	Z30	X31	Y31	Z31	X32	Y32	Z32	X33	Y33	Z33	X34	Y34	Z34	X35	Y35	Z35	X36	Y36	Z36	X37	Y37	Z37	X38	Y38	Z38	X39	Y39	Z39	X40	Y40	Z40	X41	Y41	Z41	X42	Y42	Z42	X43	Y43	Z43	X44	Y44	Z44	X45	Y45	Z45	X46	Y46	Z46	X47	Y47	Z47	X48	Y48	Z48	
251	1.2550	460.616340	1347.868091	-55.677284	476.593643	1356.119035	-357.876052	434.452765	1426.011031	-205.696906	477.487997	1276.790879	-198.989542	481.306555	1089.552381	47.894297	679.953291	955.757987	-33.316970	469.676308	1090.683026	-462.122002	667.250001	950.108416	-413.148780	-57.633748	1144.626476	-220.169122	124.672974	1092.028000	-375.001304	95.721952	1110.332689	-44.079725	135.031281	1031.057801	-347.554526	106.550844	1052.654697	-70.542730	-20.315550	1177.928651	-188.591020	-16.061901	1175.992466	-248.568049	51.458665	1061.498857	-9.760482	70.325194	1019.582186	-411.016808	155.164624	998.459518	-5.329775	243.208463	977.665976	-10.290239	306.495825	918.874181	-13.921771	256.567179	1007.696752	-30.306512	375.307824	837.078836	-39.448684	375.764393	812.528463	-148.958989	340.350054	718.586584	-15.664650	335.602767	633.254168	-36.175111	291.400110	558.642519	-41.124877	359.527377	630.670319	-68.259379	261.912697	479.376499	-46.936554	199.616900	453.442131	-99.661377	471.982442	410.456469	-97.032895	373.250984	397.730093	-27.703359	107.928839	900.868715	-420.559012	172.821958	843.312172	-410.555866	202.117878	863.379256	-397.658512	199.905272	758.536322	-400.371067	221.468838	649.168399	-370.964549	214.375393	635.139754	-254.429107	-19.915339	365.929257	-375.913445	-101.559327	357.057773	-330.187007	74.004016	265.561027	-397.531926	157.594747	565.173814	-397.019741	117.760837	489.802389	-378.219971	45.276290	438.492181	-381.771016	135.671451	477.835304	-344.610153	157.359885	247.601588	-337.875211	-204.185526	868.106165	-206.374292	-49.570323	83.950430	-413.820678	-49.129246	80.025669	-16.406694	
252	1.2600	463.201855	1344.877609	-55.398513	480.297576	1352.269210	-356.894297	438.021866	1422.899707	-205.491761	479.970934	1273.115179	-198.391711	482.007065	1087.507852	49.069166	679.356660	955.406154	-34.154476	468.506194	1087.957564	-462.939405	666.320980	949.985657	-412.803938	-56.829702	1145.567502	-220.175960	125.087208	1091.664957	-375.484837	96.378646	1110.305169	-43.802146	134.717342	1030.287997	-348.298222	106.664897	1052.456632	-70.108916	-19.000620	1178.642666	-188.574098	-14.997580	1176.527471	-248.125264	51.838399	1062.270774	-9.606067	69.845548	1019.961325	-411.331943	155.243026	998.572203	-6.011424	243.067102	977.057614	-10.922111	306.101060	917.993410	-14.282622	256.808586	1007.403944	-30.551101	373.985351	835.772976	-39.785423	375.067453	811.336608	-149.210818	339.130547	717.629151	-15.824181	334.656758	632.176012	-36.094834	290.641102	557.590752	-41.156640	358.705860	629.532523	-68.203919	261.313745	478.046730	-46.967257	199.170866	451.607135	-99.675862	471.771536	410.604192	-97.017586	373.135160	397.191610	-27.603916	107.221177	901.248615	-420.942559	171.973281	843.580153	-410.967224	201.409740	863.604805	-398.190265	198.961026	758.814781	-400.868464	220.577837	649.388531	-371.510983	213.391285	635.578310	-255.010535	-20.879579	366.147452	-375.839009	-102.386935	356.817487	-330.032918	73.510278	266.090932	-397.475526	156.775496	565.243638	-397.432949	116.869977	489.973541	-378.421253	44.341357	438.704367	-381.859561	134.797046	478.147479	-344.857822	156.960312	248.572604	-337.881027	-204.185891	868.104216	-206.323691	-49.559150	84.007427	-413.851383	-49.131414	80.051986	-16.404792	
253	1.2650	465.716978	1341.885720	-55.050628	484.259798	1348.056050	-356.014209	441.590922	1419.512808	-205.233603	482.560048	1269.196649	-197.760853	482.807288	1085.215025	50.387044	678.830927	955.071700	-34.780931	467.450637	1085.074654	-463.839172	665.531813	949.613912	-412.252119	-55.895475	1146.635385	-219.972023	125.791149	1091.178116	-375.967574	97.146896	1110.347597	-43.599894	134.570125	1029.523990	-349.076439	106.956984	1052.379897	-69.826106	-17.591678	1179.439569	-188.470134	-13.721467	1177.262384	-248.240865	52.459090	1063.025446	-9.570698	69.417324	1020.396098	-411.720853	155.489139	998.893493	-6.410362	243.125644	976.761479	-11.242820	305.445427	916.758916	-14.867559	257.105273	1006.928379	-30.791449	373.153140	834.779809	-39.806762	374.147558	810.461844	-150.337856	337.965705	716.379323	-15.971043	333.644802	630.869837	-36.146209	289.765625	556.229750	-41.256309	357.820311	628.314852	-68.195251	260.567768	476.630455	-47.148321	198.534043	449.667744	-99.773161	471.538598	410.820056	-96.919564	372.916155	396.584312	-27.524297	106.309250	901.600971	-421.023887	171.106318	843.860508	-411.504019	200.588804	863.799222	-398.924790	198.026292	759.005195	-401.288891	219.480595	649.572645	-372.147953	212.385949	635.955140	-255.525159	-21.881139	366.365514	-375.684351	-103.431508	356.555785	-329.761913	72.938199	266.866987	-397.427957	155.741240	565.366726	-398.011608	115.772064	490.226445	-378.637717	43.269531	438.925993	-381.967223	133.677578	478.427772	-345.076245	156.603036	249.716653	-337.946859	-204.183707	868.079775	-206.313427	-49.555316	84.005156	-413.850150	-49.129350	80.030800	-16.404958	
254	1.2700	468.280251	1338.667429	-54.657941	488.320711	1343.547165	-355.088293	445.158218	1415.865951	-204.967886	485.209281	1265.139164	-197.160275	483.675393	1082.786215	51.829062	678.351040	954.812068	-35.251755	466.524575	1082.105468	-464.867875	664.771938	949.153740	-411.872543	-54.893871	1147.807294	-219.982901	126.638742	1090.700471	-376.420119	97.835866	1110.386657	-43.181577	134.632229	1028.708685	-349.874362	107.555734	1052.402121	-69.404166	-16.054875	1180.082021	-188.691999	-12.206969	1177.826150	-248.768997	53.425983	1063.802531	-9.804472	69.148386	1020.788039	-412.144598	155.815422	999.186439	-6.859494	243.260612	976.366098	-11.584597	305.214447	915.683667	-15.944643	257.511310	1006.329421	-31.114192	372.279019	833.394131	-40.001016	372.941825	808.972193	-150.586033	336.908669	714.864688	-16.135506	332.677272	629.296019	-36.293646	288.932998	554.625569	-41.405448	356.880249	626.817428	-68.344255	259.775740	475.004869	-47.258921	197.904921	447.414041	-99.848679	471.200181	411.181072	-96.854423	372.634915	396.038608	-27.426132	105.542137	901.882396	-421.430601	170.253908	843.994013	-412.105737	199.834845	863.923978	-399.585052	196.973071	759.106304	-401.865295	218.351622	649.778881	-372.784700	211.270939	636.297015	-256.136885	-22.981082	366.462568	-375.567320	-104.454714	356.077573	-329.562634	72.407019	267.424644	-397.262571	154.529075	565.548491	-398.582632	114.572509	490.509010	-378.976677	42.136255	439.108146	-382.238189	132.717376	479.190121	-345.987388	156.202801	250.758710	-337.995867	-204.155627	868.080282	-206.237439	-49.555052	84.007447	-413.846453	-49.129091	80.027916	-16.409567	
